<svg width="566" height="547" viewBox="0 0 566 547" fill="none" xmlns="http://www.w3.org/2000/svg">
<g clip-path="url(#clip0_1_339)">
<path d="M497.013 376.573C507.767 375.051 518.597 370.454 529.479 360.869C553.747 339.496 549.117 302.896 530.91 281.106C512.299 258.903 474.522 245.761 429.289 281.817C352.675 342.888 320.796 320.632 320.485 320.386L314.921 327.576C316.398 328.747 351.935 355.107 435.013 288.913C475.095 257.022 507.256 266.944 523.993 286.928C539.459 305.436 543.679 336.313 523.531 354.04C498.525 376.041 473.609 367.591 447.232 358.659C436.621 355.055 425.65 351.337 414.594 349.66C375.111 343.672 350.489 367.22 349.458 368.221L355.814 374.718C363.669 368.072 372.863 363.197 382.772 360.425C392.68 357.653 403.069 357.05 413.232 358.656C423.482 360.199 434.077 363.791 444.324 367.266C461.505 373.127 479.157 379.1 497.013 376.573Z" fill="#CAB3DA"/>
<path fill-rule="evenodd" clip-rule="evenodd" d="M440.546 461.354C440.546 461.354 463.173 481.608 480.317 471.716L440.546 461.354Z" fill="#CAB3DA"/>
<path fill-rule="evenodd" clip-rule="evenodd" d="M127.762 293.467C136.744 310.134 179.83 325.877 201.738 319.52C202.716 319.241 203.678 318.906 204.618 318.519C217.545 313.046 225.458 297.783 229.352 287.862C230.541 284.931 231.554 281.931 232.385 278.878L226.77 234.138C226.77 234.138 226.203 234.329 225.238 234.728C219.498 237.065 214.055 240.078 209.026 243.701C200.701 249.902 170.65 260.545 154.113 259.229C137.576 257.913 131.105 253.627 127.33 254.741C123.555 255.855 121.431 262.779 121.431 262.779C121.431 262.779 118.294 275.904 127.762 293.467Z" fill="url(#paint0_radial_1_339)"/>
<path fill-rule="evenodd" clip-rule="evenodd" d="M121.431 262.779C121.431 262.779 127.84 259.319 131.141 263.143C134.442 266.967 141.63 292.015 127.773 293.452C113.916 294.889 121.444 262.777 121.444 262.777L121.431 262.779Z" fill="#684D73"/>
<path fill-rule="evenodd" clip-rule="evenodd" d="M125.151 263.812C125.151 263.812 129.241 277.21 123.05 289.912C123.05 289.912 113.966 273.991 125.151 263.812Z" fill="#53345F"/>
<path fill-rule="evenodd" clip-rule="evenodd" d="M92.826 267.256C97.858 274.524 104.889 280.176 113.068 283.529C116.652 285.122 120.411 286.29 124.267 287.008C126.914 281.458 127.582 275.17 126.16 269.188C126.16 269.188 125.22 267.61 123.669 265.332C120.198 260.304 114.043 251.82 109.214 249.289L109.784 255.652C109.784 255.652 103.405 247.434 89.662 249.973C89.676 249.971 83.171 252.658 92.826 267.256Z" fill="#D9D9D9"/>
<path d="M171.825 257.632C171.825 257.632 181.401 267.867 185.651 291.551C189.9 315.234 173.878 319.117 173.878 319.117C173.878 319.117 183.962 321.539 190.919 320.968C190.919 320.968 228.16 305.955 186.456 253.767L171.825 257.632Z" fill="url(#paint1_linear_1_339)"/>
<path style="mix-blend-mode:multiply" fill-rule="evenodd" clip-rule="evenodd" d="M229.352 287.862C230.414 291.272 231.712 294.786 233.089 298.469L243.305 272.186L229.352 233.469L225.326 234.274C225.278 234.419 225.256 234.56 225.21 234.718C219.469 237.056 214.027 240.068 208.998 243.691C208.998 243.691 243.114 268.887 204.605 318.424C217.546 313.046 225.458 297.783 229.352 287.862Z" fill="url(#paint2_linear_1_339)"/>
<path fill-rule="evenodd" clip-rule="evenodd" d="M279.587 498.764C279.587 498.764 285.341 483.172 323.128 481.562C323.133 481.603 311.103 501.892 279.587 498.764Z" fill="#311745"/>
<path fill-rule="evenodd" clip-rule="evenodd" d="M443.776 421.199C443.776 421.199 419.806 424.592 411.299 453.393C411.299 453.393 422.31 456.222 434.242 446.737C446.173 437.252 443.776 421.199 443.776 421.199Z" fill="#311745"/>
<path fill-rule="evenodd" clip-rule="evenodd" d="M307.296 503.853L323.717 494.988C323.717 494.988 322.813 490.548 321.628 483.445C318.59 465.495 313.702 430.67 316.71 408.25L247.806 378.458C247.806 378.458 248.125 382.759 248.711 389.534C250.516 409.203 248.93 449.567 255.374 464.578C264.059 484.695 307.296 503.853 307.296 503.853Z" fill="url(#paint3_radial_1_339)"/>
<path fill-rule="evenodd" clip-rule="evenodd" d="M247.802 378.431C266.132 395.197 289.198 405.884 313.84 409.029L316.71 408.25L332.039 404.052C332.035 404.002 332.028 403.952 332.018 403.903L331.974 403.592C331.956 403.511 331.944 403.43 331.939 403.348C331.918 403.245 331.903 403.142 331.895 403.037C331.046 396.065 327.02 352.121 353.469 309.218C349.664 305.887 346.087 302.304 342.762 298.494C342.104 297.746 341.398 296.949 340.645 296.117C337.232 292.281 333.098 287.444 328.202 281.321C317.499 268.099 299.643 246.645 287.346 231.911C283.656 227.479 280.452 223.656 278.088 220.803C277.207 219.741 276.425 218.803 275.783 218.066L273.821 215.708C273.821 215.708 244.132 235.627 225.814 232.356C225.814 232.356 225.612 232.978 225.315 234.193C225.268 234.351 225.247 234.492 225.198 234.637C223.726 240.999 220.691 260.112 229.308 287.744C230.384 291.152 231.668 294.668 233.056 298.335C233.572 299.642 234.089 300.949 234.659 302.248C234.726 324.505 237.948 346.641 244.228 367.994C245.342 371.576 246.518 375.011 247.802 378.431Z" fill="#CAB3DA"/>
<path fill-rule="evenodd" clip-rule="evenodd" d="M290.717 259.913C291.459 260.871 292.258 261.834 293.076 262.836C305.968 278.369 324.533 292.741 342.8 298.572C353.996 302.12 365.037 302.434 374.586 297.853C395.912 287.576 402.791 267.74 404.377 261.983C404.414 261.799 404.462 261.617 404.52 261.438C404.545 261.278 404.583 261.121 404.633 260.967C404.73 260.58 404.771 260.382 404.771 260.382C404.771 260.382 411.295 254.422 407.304 246.597C403.313 238.773 394.172 228.104 394.172 228.104L389.776 228.533C389.776 228.533 386.287 223.383 380.285 224.357C374.282 225.331 362.18 232.439 343.154 230.993C326.42 229.746 300.683 223.386 291.967 220.301C291.051 220.023 290.163 219.659 289.316 219.214C286.356 217.667 283.133 216.686 279.813 216.323L277.422 217.461L275.844 218.209L270.998 220.523C270.998 220.523 269.648 233.505 290.717 259.913Z" fill="url(#paint4_radial_1_339)"/>
<path fill-rule="evenodd" clip-rule="evenodd" d="M332.038 404.052C332.038 404.052 371.896 430.035 381.592 437.218C391.287 444.4 418.049 453.32 431.196 453.294C431.516 453.305 431.838 453.296 432.158 453.269C444.512 452.817 448.407 444.069 448.407 444.069C448.407 444.069 447.734 441.653 446.657 437.846C445.208 432.78 443.044 425.29 440.693 417.841C437.606 407.929 434.209 398.061 431.93 394.244C428.053 387.714 387.075 344.462 365.947 322.312C358.466 314.499 353.482 309.312 353.482 309.312C322.72 340.27 330.571 395.345 331.906 403.118C331.914 403.223 331.929 403.327 331.95 403.429C331.956 403.511 331.968 403.593 331.985 403.673L332.023 403.943C332.03 403.979 332.035 404.015 332.038 404.052Z" fill="url(#paint5_radial_1_339)"/>
<path fill-rule="evenodd" clip-rule="evenodd" d="M268.272 221.64C268.272 221.64 253.871 236.097 247.63 238.995C241.39 241.893 225.86 232.487 225.86 232.487C225.86 232.487 241.499 232.329 268.272 221.64Z" fill="#53345F"/>
<path fill-rule="evenodd" clip-rule="evenodd" d="M279.798 216.311C279.798 216.311 286.961 268.959 333.325 295.774C333.325 295.774 292.206 278.234 268.272 221.64L279.798 216.311Z" fill="#53345F"/>
<path fill-rule="evenodd" clip-rule="evenodd" d="M229.346 233.525C229.346 233.525 227.561 274.138 234.695 302.408C234.695 302.408 219.036 272.199 221.427 236.454L225.86 232.487L229.346 233.525Z" fill="#53345F"/>
<path fill-rule="evenodd" clip-rule="evenodd" d="M361.146 317.252C361.146 317.252 339.72 337.836 338.511 408.254L332.079 404.046C332.079 404.046 319.132 337.632 353.505 309.282L361.146 317.252Z" fill="#53345F"/>
<path fill-rule="evenodd" clip-rule="evenodd" d="M244.299 368.205C244.299 368.205 280.794 406.504 316.695 408.238L316.223 412.61C316.223 412.61 280.193 415.806 248.451 386.328L244.299 368.205Z" fill="#53345F"/>
<path fill-rule="evenodd" clip-rule="evenodd" d="M404.781 260.352C404.781 260.352 411.306 254.392 407.314 246.568C403.323 238.744 394.182 228.075 394.182 228.075L389.786 228.504C389.786 228.504 378.112 251.116 404.781 260.352Z" fill="#684D73"/>
<path fill-rule="evenodd" clip-rule="evenodd" d="M405.823 252.699C405.823 252.699 389.542 241.205 394.136 228.136C394.182 228.075 410.456 246.441 405.823 252.699Z" fill="#53345F"/>
<path fill-rule="evenodd" clip-rule="evenodd" d="M394.245 237.297C394.245 237.297 391.758 225.478 400.365 218.244L403.018 223.14C403.018 223.14 412.753 208.377 426.298 212.145C426.298 212.145 431.356 235.589 403.624 251.009C399.046 247.621 395.743 242.791 394.245 237.297Z" fill="#D9D9D9"/>
<path d="M419.774 379.724C419.774 379.724 427.775 395.012 410.066 414.077C392.357 433.141 372.828 431.063 372.828 431.063C372.828 431.063 383.554 439.286 390.637 442.34C397.72 445.394 428.796 427.666 436.641 405.402C436.641 405.402 434.17 396.714 430.85 392.658C427.53 388.603 419.774 379.724 419.774 379.724Z" fill="url(#paint6_linear_1_339)"/>
<path d="M316.07 435.702C316.07 435.702 305.046 452.082 289.495 462.411C280.197 468.57 268.959 471.094 257.921 469.502C257.921 469.502 265.355 479.419 273.388 484.216C273.388 484.216 293.406 480.002 302.843 472.002C312.28 464.001 317.262 451.333 317.262 451.333L316.07 435.702Z" fill="url(#paint7_linear_1_339)"/>
<path d="M338.203 230.521C338.203 230.521 315.964 271.973 359.94 301.223C354.526 301.44 349.119 300.653 343.992 298.9C331.957 295.084 295.356 249.211 324.789 228.266L338.203 230.521Z" fill="url(#paint8_linear_1_339)"/>
<path d="M316.449 408.549L316.948 407.982C316.649 407.72 287.158 381.373 274.929 358.736C264.339 339.096 262.049 327.885 258.884 312.355C257.694 306.48 256.338 299.828 254.343 291.969C250.067 275.067 247.034 257.875 245.268 240.53L244.51 240.638C246.291 258.022 249.335 275.253 253.616 292.196C255.594 300.029 256.95 306.682 258.152 312.541C261.326 328.139 263.618 339.364 274.268 359.133C286.56 381.83 316.078 408.27 316.449 408.549Z" fill="#53345F"/>
<path style="mix-blend-mode:multiply" fill-rule="evenodd" clip-rule="evenodd" d="M320.296 484.171L321.574 483.452C318.536 465.503 313.648 430.678 316.656 408.257L332.039 404.052C332.039 404.052 371.896 430.035 381.606 437.216C391.315 444.396 418.05 453.32 431.196 453.294C431.517 453.3 431.837 453.286 432.156 453.255L446.648 437.778C445.215 432.724 443.037 425.236 440.699 417.785L439.128 417.607C439.128 417.607 425.159 440.282 405.111 441.947C385.064 443.612 344.865 402.057 344.086 393.433C341.192 361.195 356.889 334.647 365.944 322.285L353.477 309.272C349.672 305.941 346.095 302.358 342.769 298.549C353.965 302.097 365.007 302.41 374.567 297.814C395.88 287.539 402.76 267.717 404.344 261.946C402.452 268.078 393.545 290.74 360.727 297.717C354.03 299.096 347.078 298.539 340.686 296.111C312.188 285.947 290.807 245.15 288.178 236.126C287.775 234.767 287.513 233.371 287.395 231.959C286.777 223.892 291.936 220.277 291.936 220.277C291.035 219.996 290.158 219.64 289.316 219.213C286.356 217.667 283.133 216.686 279.814 216.322L277.422 217.461C277.614 218.331 277.839 219.527 278.15 220.946C281.075 234.32 285.289 247.378 290.734 259.938C294.926 269.815 300.442 279.075 307.132 287.463C329.566 314.547 336.159 318.623 336.159 318.623C336.159 318.623 329.629 369.966 317.948 384.148C306.268 398.331 266.047 384.596 255.184 376.378C250.014 372.515 246.544 369.833 244.274 368.126C245.34 371.563 246.503 374.999 247.8 378.417C247.8 378.417 248.119 382.718 248.706 389.493C259.598 398.203 296.604 428.509 304.746 441.776C314.3 457.409 320.296 484.171 320.296 484.171Z" fill="url(#paint9_linear_1_339)"/>
<g style="mix-blend-mode:multiply" opacity="0.5">
<path fill-rule="evenodd" clip-rule="evenodd" d="M279.796 216.297C279.796 216.297 277.09 245.919 253.194 266.895C229.298 287.87 214.139 240.245 214.139 240.245L221.426 236.454L225.361 234.324L279.796 216.297Z" fill="#53345F"/>
</g>
<path fill-rule="evenodd" clip-rule="evenodd" d="M139.484 211.93C139.719 212.227 139.939 212.514 140.199 212.794C143.5 216.618 149.214 220.528 156.442 223.921C156.442 223.921 156.873 224.136 157.691 224.461C173.519 231.381 190.693 234.678 207.959 234.111C237.974 232.966 280.895 222.406 305.347 197.654C329.799 172.902 330.384 112.7 319.508 95.529C315.774 89.546 311.675 83.799 307.234 78.321C292.834 60.614 269.348 39.9437 235.465 38.034C209.857 36.5813 177.289 45.427 153.395 57.254C146.596 60.536 140.124 64.456 134.065 68.96C130.823 71.367 127.863 74.133 125.242 77.204L124.334 78.395C123.73 79.173 123.182 79.993 122.695 80.849C97.507 125.064 123.429 191.214 139.484 211.93Z" fill="url(#paint10_linear_1_339)"/>
<path d="M142.891 206.949C143.122 207.22 143.313 207.496 143.556 207.752C150.963 213.188 175.665 226.567 211.626 212.356C255.848 194.892 255.986 154.54 255.986 154.54L264.706 151.705C263.625 145.924 262.896 140.577 262.433 135.648C259.792 108.025 265.433 93.676 264.568 89.811C263.556 85.194 248.727 60.566 213.852 54.671C190.742 50.781 170.196 56.049 155.934 61.931C149.556 65.004 143.487 68.682 137.812 72.913C134.764 75.159 131.986 77.752 129.537 80.639L128.687 81.753C128.117 82.484 127.604 83.258 127.152 84.068C117.336 101.284 115.801 122.019 118.418 141.78C122.097 169.615 134.077 195.571 142.891 206.949Z" fill="url(#paint11_linear_1_339)"/>
<path style="mix-blend-mode:multiply" fill-rule="evenodd" clip-rule="evenodd" d="M157.692 224.461C173.52 231.381 190.694 234.678 207.959 234.111C237.974 232.966 280.896 222.406 305.347 197.654C329.799 172.902 330.384 112.7 319.509 95.529C315.775 89.546 311.676 83.799 307.235 78.321C302.629 75.027 297.431 73.5 291.601 75.594C270.213 83.286 276.827 155.84 276.827 155.84L265.924 156.803C265.924 156.803 266.151 199.049 224.927 220.242C188.916 238.779 163.441 226.766 157.692 224.461Z" fill="url(#paint12_linear_1_339)"/>
<path fill-rule="evenodd" clip-rule="evenodd" d="M315.449 182.95C306.399 194.069 286.576 193.426 278.227 157.159C269.879 120.892 284.526 81.757 284.526 81.757C254.691 90.119 269.356 153.075 269.356 153.075C270.389 155.688 271.379 158.101 272.402 160.357L272.506 160.604C293.893 208.465 313.75 185.081 315.449 182.95Z" fill="url(#paint13_linear_1_339)"/>
<path fill-rule="evenodd" clip-rule="evenodd" d="M321.915 100.542C316.7 88.558 307.488 81.376 300.372 82.77C293.256 84.164 279.495 119.324 289.607 154.886C299.718 190.448 320.804 174.962 323.135 160.433L324.606 152.498C324.606 152.498 310.828 178.278 298.027 157.64C283.41 134.114 298.858 98.397 310.367 100.935C321.875 103.473 326.03 123.858 326.03 123.858C326.03 123.858 325.387 108.495 321.915 100.542Z" fill="#53345F"/>
<path fill-rule="evenodd" clip-rule="evenodd" d="M328.506 498.504L325.144 494.247L323.201 481.593C323.201 481.593 298.835 497.985 279.646 498.798C287.464 503.778 296.487 506.54 305.753 506.789C305.753 506.789 291.998 516.16 295.278 531.922L328.506 498.504Z" fill="#D9D9D9"/>
<path fill-rule="evenodd" clip-rule="evenodd" d="M411.387 453.339L437.975 456.64L440.556 461.421C440.556 461.421 458.269 475.72 480.325 471.77C480.325 471.77 473.823 453.718 451.142 447.794L443.795 421.237C442.563 429.077 439.332 436.468 434.414 442.697C426.6 452.51 412.622 453.288 411.387 453.339Z" fill="#D9D9D9"/>
<path fill-rule="evenodd" clip-rule="evenodd" d="M328.506 498.504L331.441 500.324L297.093 534.122L295.231 531.888L328.506 498.504Z" fill="#CAB3DA"/>
<path style="mix-blend-mode:multiply" fill-rule="evenodd" clip-rule="evenodd" d="M279.587 498.765C287.404 503.745 296.427 506.507 305.693 506.756C305.693 506.756 321.223 499.494 328.506 498.504L325.144 494.247L323.201 481.593C323.201 481.593 298.779 497.98 279.587 498.765Z" fill="url(#paint14_linear_1_339)"/>
<path style="mix-blend-mode:multiply" fill-rule="evenodd" clip-rule="evenodd" d="M411.388 453.339L437.975 456.64C443.007 454.783 447.521 451.75 451.142 447.794L443.795 421.237C442.563 429.077 439.332 436.468 434.415 442.697C426.6 452.51 412.622 453.288 411.388 453.339Z" fill="url(#paint15_linear_1_339)"/>
<path d="M248.909 91.973C248.909 91.973 246.999 81.204 245.351 78.14C240.131 75.09 234.363 73.093 228.375 72.264L225.126 92.4C225.126 92.4 243.603 91.234 248.909 91.973Z" fill="white"/>
<path d="M142.967 207.587C143.185 207.859 143.389 208.134 143.633 208.389C151.026 213.828 175.697 227.183 211.62 212.992C255.787 195.535 255.879 155.245 255.879 155.245L264.571 152.414C263.504 146.632 262.777 141.298 262.3 136.371C262.3 136.371 176.2 75.165 118.524 142.428C122.192 170.292 134.156 196.222 142.967 207.587Z" fill="url(#paint16_linear_1_339)"/>
<path d="M249.393 163.035C249.393 163.035 248.542 172.621 245.222 178.803L239.398 176.647C239.398 176.647 242.134 167.705 243.108 162.406L249.393 163.035Z" fill="white"/>
<path style="mix-blend-mode:multiply" fill-rule="evenodd" clip-rule="evenodd" d="M423.768 230.137C423.768 230.137 416.21 241.28 406.986 243.082C397.762 244.885 394.01 235.633 394.01 235.633C394.01 235.633 394.065 243.628 403.57 251.017C403.57 251.017 419.327 242.632 423.768 230.137Z" fill="url(#paint17_linear_1_339)"/>
<path style="mix-blend-mode:multiply" fill-rule="evenodd" clip-rule="evenodd" d="M113.081 283.527C116.666 285.12 120.425 286.288 124.281 287.006C126.928 281.456 127.596 275.168 126.174 269.186C126.174 269.186 125.233 267.608 123.683 265.33C123.683 265.33 125.504 275.27 113.081 283.527Z" fill="url(#paint18_linear_1_339)"/>
<path fill-rule="evenodd" clip-rule="evenodd" d="M262.918 279.151C263.845 280.872 265.103 282.393 266.62 283.627C268.136 284.861 269.881 285.783 271.755 286.341C273.629 286.898 275.594 287.081 277.539 286.877C279.483 286.674 281.368 286.088 283.085 285.154C284.808 284.229 286.33 282.971 287.565 281.455C288.8 279.939 289.723 278.193 290.281 276.319C290.839 274.445 291.021 272.479 290.816 270.534C290.612 268.589 290.025 266.704 289.089 264.987C288.162 263.266 286.904 261.745 285.388 260.511C283.871 259.277 282.126 258.355 280.252 257.797C278.378 257.239 276.413 257.057 274.469 257.26C272.524 257.464 270.639 258.049 268.922 258.983C267.201 259.91 265.68 261.168 264.446 262.685C263.212 264.201 262.29 265.946 261.732 267.82C261.174 269.694 260.992 271.659 261.195 273.604C261.399 275.548 261.984 277.433 262.918 279.151Z" fill="#684D73"/>
<path fill-rule="evenodd" clip-rule="evenodd" d="M267.777 276.531C268.958 278.7 270.952 280.311 273.32 281.01C275.688 281.71 278.237 281.441 280.406 280.263C281.482 279.679 282.431 278.889 283.2 277.939C283.97 276.988 284.545 275.895 284.891 274.722C285.238 273.549 285.35 272.319 285.22 271.103C285.091 269.886 284.723 268.707 284.138 267.633C282.957 265.465 280.964 263.854 278.596 263.154C276.227 262.454 273.679 262.723 271.509 263.902C269.34 265.083 267.729 267.076 267.029 269.444C266.33 271.812 266.599 274.361 267.777 276.531Z" fill="url(#paint19_linear_1_339)"/>
<path fill-rule="evenodd" clip-rule="evenodd" d="M318.726 227.248C318.726 227.248 307.186 244.667 294.488 221.144C294.488 221.144 312.02 225.783 318.726 227.248Z" fill="#684D73"/>
<path d="M286.19 431.074C296.231 429.583 306.157 427.404 315.899 424.55L315.672 423.823C315.183 423.975 266.772 438.458 250.466 427.369L250.044 427.994C257.901 433.395 272.663 432.988 286.19 431.074Z" fill="#53345F"/>
<path d="M352.51 418.829L353.267 418.722C351.444 409.867 351.005 400.782 351.966 391.793C354.529 368.856 379.777 337.354 380.023 337.043L379.43 336.561C379.185 336.872 353.795 368.546 351.209 391.707C350.246 400.761 350.685 409.909 352.51 418.829Z" fill="#53345F"/>
<path d="M392.805 283.559L393.401 283.088C361.557 242.558 380.364 224.815 380.548 224.651L380.054 224.086C379.845 224.267 375.009 228.705 374.147 238.306C373.297 247.12 375.961 262.141 392.805 283.559Z" fill="#53345F"/>
<path d="M156.459 313.911C170.993 284.795 138.863 256.765 138.548 256.493L138.049 257.06C138.365 257.346 170.055 284.997 155.789 313.564L156.459 313.911Z" fill="#53345F"/>
<path d="M293.113 312.808C294.779 315.75 296.814 318.467 299.17 320.892L305.008 316.906C303.298 313.867 300.731 311.399 297.628 309.809L293.113 312.808Z" fill="white"/>
<path d="M367.532 231.254C365.297 232.31 362.841 232.814 360.371 232.722L358.226 236.283C358.226 236.283 363.977 238.601 367.324 235.146L367.532 231.254Z" fill="white"/>
<path d="M406.641 385.198C409.578 386.966 412.042 389.42 413.821 392.351L410.098 396.755L403.606 389.395L406.641 385.198Z" fill="white"/>
<path d="M128.422 255.042C130.836 255.878 132.924 257.457 134.386 259.552L139.263 259.786C138.244 258.663 137.093 257.668 135.835 256.822C133.878 255.567 128.422 255.042 128.422 255.042Z" fill="white"/>
<path d="M258.913 440.84C258.913 440.84 257.868 452.952 259.905 458.376L254.871 458.978C252.962 453.542 252.385 447.728 253.189 442.023L258.913 440.84Z" fill="white"/>
<path d="M231.974 51.292C231.974 51.292 202.405 44.963 184.533 48.155C184.533 48.155 246.854 30.6679 231.974 51.292Z" fill="white"/>
<path d="M277.711 108.869L266.667 107.562L265.767 119.529L276.289 119.874L277.711 108.869Z" fill="white"/>
</g>
<defs>
<radialGradient id="paint0_radial_1_339" cx="0" cy="0" r="1" gradientUnits="userSpaceOnUse" gradientTransform="translate(184.268 276.713) rotate(151.643) scale(52.3805 52.3805)">
<stop stop-color="#F4DBEE"/>
<stop offset="1" stop-color="#D1BDE5"/>
</radialGradient>
<linearGradient id="paint1_linear_1_339" x1="206.577" y1="281.249" x2="165.117" y2="287.2" gradientUnits="userSpaceOnUse">
<stop stop-color="#AA367C"/>
<stop offset="1" stop-color="#4A2FBD"/>
</linearGradient>
<linearGradient id="paint2_linear_1_339" x1="244.052" y1="260.685" x2="189.373" y2="290.197" gradientUnits="userSpaceOnUse">
<stop stop-color="#9579A7"/>
<stop offset="1" stop-color="white"/>
</linearGradient>
<radialGradient id="paint3_radial_1_339" cx="0" cy="0" r="1" gradientUnits="userSpaceOnUse" gradientTransform="translate(250.19 448.066) rotate(151.643) scale(55.8371 55.8371)">
<stop stop-color="#F4F1FF"/>
<stop offset="1" stop-color="#D1BDE5"/>
</radialGradient>
<radialGradient id="paint4_radial_1_339" cx="0" cy="0" r="1" gradientUnits="userSpaceOnUse" gradientTransform="translate(344.565 247.374) rotate(151.643) scale(57.1759)">
<stop stop-color="#F4DBEE"/>
<stop offset="1" stop-color="#D1BDE5"/>
</radialGradient>
<radialGradient id="paint5_radial_1_339" cx="0" cy="0" r="1" gradientUnits="userSpaceOnUse" gradientTransform="translate(377.568 390.789) rotate(151.643) scale(67.3269 67.3269)">
<stop stop-color="#F4F1FF"/>
<stop offset="1" stop-color="#D1BDE5"/>
</radialGradient>
<linearGradient id="paint6_linear_1_339" x1="440.451" y1="403.275" x2="362.527" y2="414.638" gradientUnits="userSpaceOnUse">
<stop stop-color="#AA367C"/>
<stop offset="1" stop-color="#4A2FBD"/>
</linearGradient>
<linearGradient id="paint7_linear_1_339" x1="322.466" y1="453.787" x2="249.769" y2="464.482" gradientUnits="userSpaceOnUse">
<stop stop-color="#AA367C"/>
<stop offset="1" stop-color="#4A2FBD"/>
</linearGradient>
<linearGradient id="paint8_linear_1_339" x1="356.315" y1="258.65" x2="310.787" y2="265.181" gradientUnits="userSpaceOnUse">
<stop stop-color="#AA367C"/>
<stop offset="1" stop-color="#4A2FBD"/>
</linearGradient>
<linearGradient id="paint9_linear_1_339" x1="423.892" y1="297.989" x2="250.02" y2="391.833" gradientUnits="userSpaceOnUse">
<stop stop-color="white"/>
<stop offset="1" stop-color="#9579A7"/>
</linearGradient>
<linearGradient id="paint10_linear_1_339" x1="266.441" y1="223.093" x2="171.552" y2="47.285" gradientUnits="userSpaceOnUse">
<stop stop-color="#D1BDE5"/>
<stop offset="1" stop-color="white"/>
</linearGradient>
<linearGradient id="paint11_linear_1_339" x1="277.453" y1="114.661" x2="100.061" y2="140.392" gradientUnits="userSpaceOnUse">
<stop stop-color="#AA367C"/>
<stop offset="1" stop-color="#4A2FBD"/>
</linearGradient>
<linearGradient id="paint12_linear_1_339" x1="332.902" y1="120.17" x2="153.643" y2="216.921" gradientUnits="userSpaceOnUse">
<stop stop-color="white"/>
<stop offset="1" stop-color="#9579A7"/>
</linearGradient>
<linearGradient id="paint13_linear_1_339" x1="313.339" y1="185.982" x2="262.985" y2="92.685" gradientUnits="userSpaceOnUse">
<stop stop-color="#D1BDE5"/>
<stop offset="1" stop-color="#F4DBEE"/>
</linearGradient>
<linearGradient id="paint14_linear_1_339" x1="325.965" y1="486.749" x2="285.063" y2="508.825" gradientUnits="userSpaceOnUse">
<stop stop-color="white"/>
<stop offset="1" stop-color="#9579A7"/>
</linearGradient>
<linearGradient id="paint15_linear_1_339" x1="450.63" y1="433.793" x2="412.11" y2="454.584" gradientUnits="userSpaceOnUse">
<stop stop-color="white"/>
<stop offset="1" stop-color="#9579A7"/>
</linearGradient>
<linearGradient id="paint16_linear_1_339" x1="272.554" y1="146.526" x2="105.46" y2="171.008" gradientUnits="userSpaceOnUse">
<stop stop-color="#5A30B2"/>
<stop offset="1" stop-color="#4A2FBD"/>
</linearGradient>
<linearGradient id="paint17_linear_1_339" x1="423.65" y1="229.856" x2="397.104" y2="244.184" gradientUnits="userSpaceOnUse">
<stop stop-color="white"/>
<stop offset="1" stop-color="#9579A7"/>
</linearGradient>
<linearGradient id="paint18_linear_1_339" x1="128.606" y1="273.625" x2="112.472" y2="282.333" gradientUnits="userSpaceOnUse">
<stop stop-color="#9579A7"/>
<stop offset="1" stop-color="white"/>
</linearGradient>
<linearGradient id="paint19_linear_1_339" x1="286.166" y1="269.643" x2="264.432" y2="272.801" gradientUnits="userSpaceOnUse">
<stop stop-color="#AA367C"/>
<stop offset="1" stop-color="#4A2FBD"/>
</linearGradient>
<clipPath id="clip0_1_339">
<rect width="566" height="547" fill="white"/>
</clipPath>
</defs>
</svg>
