<svg width="265" height="87" viewBox="0 0 265 87" fill="none" xmlns="http://www.w3.org/2000/svg">
<circle cx="61.0211" cy="43.2444" r="29.4643" transform="rotate(-15.0193 61.0211 43.2444)" fill="url(#paint0_linear_23_2)"/>
<path fill-rule="evenodd" clip-rule="evenodd" d="M31.7401 46.5617C31.8928 47.8943 32.1383 49.2318 32.4811 50.5668C31.0558 51.1272 29.6896 51.6846 28.3878 52.2366C27.3709 52.6678 26.197 52.193 25.7658 51.1761C25.3346 50.1591 25.8094 48.9852 26.8263 48.554C28.3815 47.8945 30.0222 47.2292 31.7401 46.5617ZM89.3405 35.1105C88.9607 33.7866 88.4957 32.5094 87.9529 31.2833C90.4251 30.8776 92.783 30.536 95.0057 30.2607C96.1019 30.1249 97.1006 30.9035 97.2364 31.9997C97.3721 33.0959 96.5936 34.0946 95.4974 34.2304C93.5523 34.4713 91.495 34.7651 89.3405 35.1105ZM16.2272 58.4219C17.1459 57.8087 17.3934 56.5668 16.7801 55.6481C16.1668 54.7294 14.925 54.4819 14.0063 55.0951C12.4106 56.1604 11.0781 57.2424 10.1762 58.3285C9.32623 59.3522 8.50714 60.8169 8.94667 62.455C9.3862 64.0932 10.8284 64.951 12.0767 65.4117C13.4011 65.9005 15.0963 66.1702 17.0109 66.2936C18.1132 66.3646 19.0644 65.5286 19.1354 64.4264C19.2065 63.3241 18.3705 62.3729 17.2682 62.3019C15.5142 62.1888 14.2601 61.9538 13.4617 61.6592C13.1784 61.5546 13.0021 61.4624 12.896 61.3954C12.9543 61.2842 13.0607 61.1162 13.2537 60.8838C13.7973 60.229 14.7654 59.3978 16.2272 58.4219ZM12.7505 61.2818C12.7506 61.2818 12.7515 61.2829 12.7531 61.2851C12.7513 61.2829 12.7504 61.2818 12.7505 61.2818ZM12.8275 61.5623C12.8272 61.5651 12.8269 61.5665 12.8269 61.5665C12.8268 61.5665 12.827 61.5651 12.8275 61.5623ZM109.378 29.5058C108.276 29.4348 107.325 30.2708 107.254 31.373C107.183 32.4753 108.019 33.4265 109.121 33.4975C110.875 33.6106 112.129 33.8456 112.927 34.1403C113.211 34.2448 113.387 34.337 113.493 34.404C113.435 34.5152 113.328 34.6832 113.136 34.9156C112.592 35.5704 111.624 36.4016 110.162 37.3775C109.243 37.9908 108.996 39.2326 109.609 40.1513C110.222 41.07 111.464 41.3176 112.383 40.7043C113.979 39.639 115.311 38.557 116.213 37.4709C117.063 36.4472 117.882 34.9825 117.443 33.3444C117.003 31.7063 115.561 30.8484 114.312 30.3877C112.988 29.8989 111.293 29.6292 109.378 29.5058ZM113.639 34.5176C113.639 34.5176 113.638 34.5166 113.636 34.5144C113.638 34.5165 113.639 34.5176 113.639 34.5176ZM113.562 34.2369C113.562 34.2343 113.562 34.2329 113.562 34.2329C113.562 34.2329 113.562 34.2342 113.562 34.2369ZM30.8918 61.569C29.7956 61.7048 29.0171 62.7035 29.1528 63.7997C29.2886 64.8959 30.2873 65.6745 31.3835 65.5387C35.6097 65.0153 40.3248 64.252 45.3841 63.2649C46.4682 63.0534 47.1756 62.0031 46.9641 60.919C46.7526 59.8348 45.7022 59.1274 44.6181 59.339C39.6338 60.3114 35.0113 61.0588 30.8918 61.569ZM99.5629 47.2454C100.58 46.8142 101.055 45.6403 100.623 44.6234C100.192 43.6064 99.0183 43.1316 98.0014 43.5628C94.1798 45.1833 89.804 46.8502 85.0024 48.5034C83.958 48.863 83.4028 50.0012 83.7624 51.0456C84.122 52.09 85.2601 52.6451 86.3045 52.2855C91.1784 50.6074 95.6423 48.9079 99.5629 47.2454ZM58.2274 56.3295C57.1547 56.5929 56.4986 57.6761 56.7621 58.7488C57.0255 59.8215 58.1086 60.4775 59.1813 60.2141C61.4288 59.6622 63.7138 59.0755 66.0267 58.4549C68.3396 57.8344 70.6113 57.1985 72.8333 56.5512C73.8937 56.2422 74.503 55.1321 74.194 54.0716C73.8851 53.0111 72.775 52.4019 71.7145 52.7108C69.52 53.3501 67.2757 53.9783 64.9901 54.5916C62.7045 55.2048 60.4471 55.7845 58.2274 56.3295Z" fill="url(#paint1_linear_23_2)"/>
<path d="M129.28 54V40.368H124.504V37.488H137.464V40.368H132.688V54H129.28ZM144.759 54.192C143.671 54.192 142.767 54.12 142.047 53.976C141.327 53.832 140.751 53.608 140.319 53.304C139.903 52.984 139.583 52.584 139.359 52.104C139.151 51.608 139.015 51.016 138.951 50.328C138.903 49.624 138.879 48.816 138.879 47.904C138.879 46.816 138.935 45.872 139.047 45.072C139.159 44.272 139.391 43.616 139.743 43.104C140.111 42.576 140.671 42.192 141.423 41.952C142.191 41.696 143.207 41.568 144.471 41.568C145.495 41.568 146.327 41.648 146.967 41.808C147.607 41.968 148.111 42.208 148.479 42.528C148.863 42.848 149.135 43.264 149.295 43.776C149.471 44.272 149.583 44.864 149.631 45.552C149.679 46.24 149.703 47.024 149.703 47.904V48.84H142.047C142.047 49.448 142.071 49.944 142.119 50.328C142.183 50.696 142.319 50.976 142.527 51.168C142.751 51.36 143.095 51.488 143.559 51.552C144.039 51.616 144.687 51.648 145.503 51.648C145.839 51.648 146.215 51.64 146.631 51.624C147.063 51.608 147.503 51.584 147.951 51.552C148.415 51.52 148.839 51.488 149.223 51.456V53.808C148.871 53.888 148.439 53.952 147.927 54C147.431 54.064 146.903 54.112 146.343 54.144C145.799 54.176 145.271 54.192 144.759 54.192ZM146.679 47.256V46.872C146.679 46.248 146.639 45.752 146.559 45.384C146.495 45 146.375 44.712 146.199 44.52C146.039 44.328 145.815 44.208 145.527 44.16C145.239 44.096 144.871 44.064 144.423 44.064C143.895 44.064 143.479 44.104 143.175 44.184C142.871 44.248 142.639 44.384 142.479 44.592C142.319 44.784 142.207 45.072 142.143 45.456C142.079 45.824 142.047 46.296 142.047 46.872H147.111L146.679 47.256ZM158.958 54.192C157.982 54.192 157.174 54.104 156.534 53.928C155.91 53.752 155.406 53.496 155.022 53.16C154.654 52.824 154.382 52.408 154.206 51.912C154.03 51.4 153.918 50.808 153.87 50.136C153.822 49.448 153.798 48.688 153.798 47.856C153.798 47.056 153.822 46.328 153.87 45.672C153.934 45 154.062 44.408 154.254 43.896C154.446 43.384 154.726 42.96 155.094 42.624C155.462 42.272 155.958 42.008 156.582 41.832C157.206 41.656 157.99 41.568 158.934 41.568C159.542 41.568 160.166 41.6 160.806 41.664C161.446 41.728 161.99 41.816 162.438 41.928V44.328C162.102 44.264 161.678 44.216 161.166 44.184C160.654 44.152 160.182 44.136 159.75 44.136C159.126 44.136 158.63 44.184 158.262 44.28C157.91 44.376 157.638 44.56 157.446 44.832C157.27 45.088 157.15 45.464 157.086 45.96C157.022 46.456 156.99 47.096 156.99 47.88C156.99 48.68 157.022 49.328 157.086 49.824C157.15 50.32 157.278 50.704 157.47 50.976C157.662 51.232 157.942 51.408 158.31 51.504C158.694 51.584 159.19 51.624 159.798 51.624C160.182 51.624 160.614 51.608 161.094 51.576C161.59 51.544 162.07 51.504 162.534 51.456V53.832C162.086 53.944 161.534 54.032 160.878 54.096C160.222 54.16 159.582 54.192 158.958 54.192ZM166.876 54V36.168H170.044V43.2H170.236C170.444 42.816 170.716 42.504 171.052 42.264C171.388 42.024 171.788 41.856 172.252 41.76C172.716 41.648 173.244 41.592 173.836 41.592C174.668 41.592 175.34 41.696 175.852 41.904C176.364 42.096 176.756 42.392 177.028 42.792C177.3 43.192 177.476 43.688 177.556 44.28C177.652 44.872 177.7 45.56 177.7 46.344V54H174.532V47.52C174.532 46.784 174.508 46.2 174.46 45.768C174.412 45.336 174.316 45.016 174.172 44.808C174.028 44.6 173.812 44.472 173.524 44.424C173.236 44.36 172.852 44.328 172.372 44.328C171.86 44.328 171.444 44.392 171.124 44.52C170.82 44.632 170.588 44.824 170.428 45.096C170.284 45.352 170.18 45.696 170.116 46.128C170.068 46.544 170.044 47.056 170.044 47.664V54H166.876ZM185.495 54L181.511 37.488H184.919L187.823 50.04H187.943L191.135 37.488H194.687L197.927 50.04H198.047L200.759 37.488H204.167L200.159 54H195.911L192.887 42.456H192.767L189.743 54H185.495ZM212.422 54.192C211.366 54.192 210.486 54.128 209.782 54C209.078 53.872 208.526 53.664 208.126 53.376C207.726 53.088 207.43 52.704 207.238 52.224C207.062 51.744 206.942 51.144 206.878 50.424C206.83 49.704 206.806 48.848 206.806 47.856C206.806 46.864 206.83 46.016 206.878 45.312C206.942 44.592 207.062 43.992 207.238 43.512C207.43 43.032 207.726 42.648 208.126 42.36C208.526 42.072 209.078 41.872 209.782 41.76C210.486 41.632 211.366 41.568 212.422 41.568C213.478 41.568 214.35 41.632 215.038 41.76C215.742 41.872 216.294 42.072 216.694 42.36C217.11 42.648 217.406 43.032 217.582 43.512C217.774 43.992 217.894 44.592 217.942 45.312C218.006 46.016 218.038 46.864 218.038 47.856C218.038 48.848 218.006 49.704 217.942 50.424C217.894 51.144 217.774 51.744 217.582 52.224C217.406 52.704 217.11 53.088 216.694 53.376C216.294 53.664 215.742 53.872 215.038 54C214.35 54.128 213.478 54.192 212.422 54.192ZM212.422 51.624C213.014 51.624 213.478 51.584 213.814 51.504C214.166 51.424 214.406 51.264 214.534 51.024C214.678 50.768 214.766 50.384 214.798 49.872C214.83 49.36 214.846 48.688 214.846 47.856C214.846 47.024 214.83 46.36 214.798 45.864C214.766 45.352 214.678 44.976 214.534 44.736C214.406 44.48 214.166 44.32 213.814 44.256C213.478 44.176 213.014 44.136 212.422 44.136C211.814 44.136 211.342 44.176 211.006 44.256C210.67 44.32 210.43 44.48 210.286 44.736C210.142 44.976 210.054 45.352 210.022 45.864C210.006 46.36 209.998 47.024 209.998 47.856C209.998 48.688 210.006 49.36 210.022 49.872C210.054 50.384 210.142 50.768 210.286 51.024C210.43 51.264 210.67 51.424 211.006 51.504C211.342 51.584 211.814 51.624 212.422 51.624ZM222.58 54V41.76H225.556L225.652 43.872H225.844C226.052 43.264 226.332 42.792 226.684 42.456C227.052 42.12 227.492 41.888 228.004 41.76C228.516 41.632 229.1 41.568 229.756 41.568V44.592C228.716 44.592 227.9 44.736 227.308 45.024C226.732 45.312 226.324 45.784 226.084 46.44C225.86 47.096 225.748 47.984 225.748 49.104V54H222.58ZM233.608 54V36.168H236.8V54H233.608ZM245.522 54.192C244.77 54.192 244.13 54.096 243.602 53.904C243.074 53.696 242.642 53.36 242.306 52.896C241.97 52.416 241.722 51.768 241.562 50.952C241.418 50.136 241.346 49.12 241.346 47.904C241.346 46.688 241.418 45.672 241.562 44.856C241.706 44.04 241.938 43.392 242.258 42.912C242.594 42.432 243.018 42.088 243.53 41.88C244.058 41.672 244.698 41.568 245.45 41.568C245.978 41.568 246.466 41.616 246.914 41.712C247.378 41.792 247.786 41.944 248.138 42.168C248.506 42.376 248.81 42.688 249.05 43.104H249.242V36.168H252.41V54H249.434L249.338 52.488H249.17C248.93 52.968 248.61 53.328 248.21 53.568C247.826 53.808 247.402 53.968 246.938 54.048C246.474 54.144 246.002 54.192 245.522 54.192ZM246.89 51.456C247.482 51.456 247.93 51.384 248.234 51.24C248.554 51.08 248.786 50.832 248.93 50.496C249.058 50.176 249.138 49.8 249.17 49.368C249.218 48.936 249.242 48.44 249.242 47.88C249.242 47.304 249.218 46.808 249.17 46.392C249.138 45.976 249.058 45.624 248.93 45.336C248.786 44.968 248.554 44.712 248.234 44.568C247.93 44.408 247.482 44.328 246.89 44.328C246.362 44.328 245.938 44.368 245.618 44.448C245.298 44.512 245.058 44.664 244.898 44.904C244.754 45.128 244.658 45.48 244.61 45.96C244.562 46.424 244.538 47.064 244.538 47.88C244.538 48.696 244.562 49.344 244.61 49.824C244.658 50.304 244.754 50.664 244.898 50.904C245.058 51.128 245.298 51.28 245.618 51.36C245.938 51.424 246.362 51.456 246.89 51.456Z" fill="white"/>
<defs>
<linearGradient id="paint0_linear_23_2" x1="61.0211" y1="13.7801" x2="61.0211" y2="72.7087" gradientUnits="userSpaceOnUse">
<stop stop-color="#FF00F5"/>
<stop offset="1" stop-color="#4200FF"/>
</linearGradient>
<linearGradient id="paint1_linear_23_2" x1="58.492" y1="35.0828" x2="70.3059" y2="74.2568" gradientUnits="userSpaceOnUse">
<stop stop-color="#8F00FF"/>
<stop offset="1" stop-color="#FF00F5"/>
</linearGradient>
</defs>
</svg>
