<svg width="372" height="396" viewBox="0 0 372 396" fill="none" xmlns="http://www.w3.org/2000/svg">
<path fill-rule="evenodd" clip-rule="evenodd" d="M199.631 189.304C200.227 189.503 200.849 189.689 201.491 189.885C211.531 192.875 223.685 193.728 233.25 190.981C239.104 189.286 243.96 186.24 246.761 181.512C253.005 170.931 250.258 160.387 249.283 157.446C249.246 157.356 249.215 157.263 249.188 157.169C249.153 157.093 249.124 157.014 249.101 156.933C249.031 156.738 248.992 156.641 248.992 156.641C248.992 156.641 250.091 152.189 246.113 149.962C242.136 147.735 235.117 145.764 235.117 145.764L233.343 147.216C233.343 147.216 230.353 145.998 228.043 148.148C225.733 150.298 222.558 156.853 213.929 161.712C206.348 165.995 193.407 170.667 188.756 171.847C188.28 171.991 187.792 172.089 187.298 172.141C185.575 172.327 183.901 172.832 182.364 173.632L181.66 174.812L181.194 175.59L179.77 177.985C179.77 177.985 182.928 183.977 199.631 189.304Z" fill="url(#paint0_radial_26_2)"/>
<path fill-rule="evenodd" clip-rule="evenodd" d="M247.972 157.657C247.972 157.657 249.161 153.227 245.229 150.921C241.298 148.614 234.319 146.502 234.319 146.502L232.517 147.918C232.517 147.918 233.728 161.068 247.972 157.657Z" fill="#684D73"/>
<path fill-rule="evenodd" clip-rule="evenodd" d="M248.794 173.241C248.794 173.241 238.477 172.525 236.996 165.49C237 165.451 249.165 169.217 248.794 173.241Z" fill="#53345F"/>
<path fill-rule="evenodd" clip-rule="evenodd" d="M236.924 150.518C236.924 150.518 232.534 146.044 234.277 140.475L236.805 141.875C236.805 141.875 236.938 132.699 243.915 130.563C243.915 130.563 252.677 139.403 244.856 153.894C241.908 153.691 239.114 152.502 236.924 150.518Z" fill="#D9D9D9"/>
<path d="M210.939 163.374C210.939 163.374 213.403 188.65 243.207 185.867C240.728 187.83 237.94 189.365 234.982 190.393C228.131 192.932 196.614 186.112 203.927 167.052L210.939 163.374Z" fill="url(#paint1_linear_26_2)"/>
<path style="mix-blend-mode:multiply" fill-rule="evenodd" clip-rule="evenodd" d="M247.835 139.138C247.835 139.138 247.642 146.123 244.112 149.488C240.581 152.854 236.356 149.856 236.356 149.856C236.356 149.856 238.613 153.337 244.835 153.913C244.835 153.913 249.383 145.843 247.835 139.138Z" fill="url(#paint2_linear_26_2)"/>
<path fill-rule="evenodd" clip-rule="evenodd" d="M201.153 167.535C201.153 167.535 200.973 178.377 188.848 171.637C188.848 171.637 197.811 168.767 201.153 167.535Z" fill="#684D73"/>
<path d="M249.218 171.152L249.347 170.779C224.097 161.951 227.365 148.937 227.4 148.814L227.026 148.705C226.985 148.842 226.11 152.134 228.415 156.574C230.506 160.666 235.868 166.491 249.218 171.152Z" fill="#53345F"/>
<path d="M235.078 157.374C234.413 158.471 233.494 159.393 232.399 160.06L232.49 162.215C232.49 162.215 235.642 161.572 236.102 159.119L235.078 157.374Z" fill="white"/>
<path fill-rule="evenodd" clip-rule="evenodd" d="M107.546 204.308C112.952 212.512 135.946 218.676 146.98 214.386C147.473 214.197 147.954 213.98 148.423 213.737C154.854 210.316 158.246 202.063 159.804 196.756C160.284 195.187 160.671 193.59 160.96 191.973L156.008 169.103C156.008 169.103 155.724 169.228 155.243 169.478C152.383 170.949 149.708 172.756 147.274 174.859C143.255 178.446 128.208 185.324 119.599 185.402C110.99 185.479 107.449 183.56 105.549 184.309C103.648 185.057 102.867 188.734 102.867 188.734C102.867 188.734 101.847 195.662 107.546 204.308Z" fill="url(#paint3_radial_26_2)"/>
<path fill-rule="evenodd" clip-rule="evenodd" d="M102.867 188.734C102.867 188.734 106.022 186.652 107.903 188.477C109.785 190.303 114.648 202.922 107.551 204.299C100.453 205.677 102.874 188.732 102.874 188.732L102.867 188.734Z" fill="#684D73"/>
<path fill-rule="evenodd" clip-rule="evenodd" d="M88.2855 192.359C91.2196 195.885 95.113 198.485 99.4946 199.843C101.42 200.503 103.417 200.934 105.443 201.129C106.557 198.139 106.614 194.857 105.605 191.83C105.605 191.83 105.047 191.058 104.141 189.951C102.116 187.511 98.5461 183.407 95.9339 182.32L96.52 185.583C96.52 185.583 92.8461 181.627 85.8582 183.569C85.8653 183.568 82.6258 185.255 88.2855 192.359Z" fill="#D9D9D9"/>
<path d="M128.682 183.765C128.682 183.765 134.101 188.617 137.383 200.665C140.664 212.713 132.56 215.454 132.56 215.454C132.56 215.454 137.883 216.244 141.454 215.631C141.454 215.631 160.017 206.164 136.068 181.097L128.682 183.765Z" fill="url(#paint4_linear_26_2)"/>
<path style="mix-blend-mode:multiply" fill-rule="evenodd" clip-rule="evenodd" d="M159.804 196.756C160.509 198.471 161.341 200.228 162.221 202.068L166.298 188.014L157.312 168.639L155.268 169.24C155.25 169.317 155.245 169.391 155.228 169.474C152.367 170.946 149.692 172.752 147.259 174.856C147.259 174.856 166.048 186.317 148.411 213.688C154.854 210.316 158.245 202.063 159.804 196.756Z" fill="url(#paint5_linear_26_2)"/>
<path style="mix-blend-mode:multiply" fill-rule="evenodd" clip-rule="evenodd" d="M99.5016 199.842C101.428 200.501 103.424 200.933 105.451 201.127C106.565 198.137 106.622 194.856 105.613 191.829C105.613 191.829 105.054 191.056 104.148 189.95C104.148 189.95 105.545 195.005 99.5016 199.842Z" fill="url(#paint6_linear_26_2)"/>
<path d="M123.317 213.561C129.496 197.844 111.603 184.827 111.428 184.701L111.196 185.016C111.372 185.15 129.021 197.992 122.955 213.412L123.317 213.561Z" fill="#53345F"/>
<path d="M106.127 184.414C107.413 184.736 108.565 185.456 109.417 186.472L111.948 186.37C111.37 185.836 110.73 185.375 110.04 184.995C108.971 184.436 106.127 184.414 106.127 184.414Z" fill="white"/>
<path d="M254.78 260.269C260.416 260.19 266.292 258.533 272.523 254.312C286.417 244.9 286.432 225.755 278.487 213.344C270.361 200.694 251.774 191.453 226.125 207.05C182.682 233.469 167.729 219.922 167.585 219.775L164.25 223.112C164.934 223.811 181.5 239.71 228.607 211.078C251.331 197.288 267.238 204.503 274.544 215.888C281.293 226.429 281.442 242.601 269.908 250.407C255.593 260.094 243.32 254.111 230.327 247.784C225.1 245.234 219.696 242.601 214.114 241.013C194.181 235.343 179.962 245.851 179.366 246.299L182.212 250.06C186.691 247.154 191.744 245.247 197.027 244.469C202.309 243.691 207.697 244.062 212.824 245.555C217.999 247.021 223.218 249.564 228.266 252.025C236.726 256.168 245.422 260.4 254.78 260.269Z" fill="#CAB3DA"/>
<path fill-rule="evenodd" clip-rule="evenodd" d="M227.068 316.042C227.068 316.042 235.338 329.458 245.328 327.065L227.068 316.042Z" fill="#CAB3DA"/>
<path fill-rule="evenodd" clip-rule="evenodd" d="M148.597 179.493C148.597 179.493 148.656 186.763 143.701 192.169C143.701 192.169 141.53 182.908 148.597 179.493Z" fill="#53345F"/>
<path fill-rule="evenodd" clip-rule="evenodd" d="M141.465 310.91C141.465 310.91 146.628 304.001 165.667 308.775C165.663 308.796 156.684 317.116 141.465 310.91Z" fill="#311745"/>
<path fill-rule="evenodd" clip-rule="evenodd" d="M234.599 296.54C234.599 296.54 222.173 294.692 213.691 307.767C213.691 307.767 218.752 310.799 226.088 307.84C233.424 304.881 234.599 296.54 234.599 296.54Z" fill="#311745"/>
<path fill-rule="evenodd" clip-rule="evenodd" d="M154.501 317.53L163.979 315.542C163.979 315.542 164.184 313.199 164.642 309.491C165.779 300.111 168.484 282.063 173.288 271.352L143.4 246.364C143.4 246.364 142.925 248.551 142.217 252.009C140.213 262.061 133.469 281.91 134.461 290.329C135.815 301.62 154.501 317.53 154.501 317.53Z" fill="url(#paint7_radial_26_2)"/>
<path fill-rule="evenodd" clip-rule="evenodd" d="M143.402 246.35C150.049 257.396 159.949 266.116 171.745 271.316L173.288 271.352L181.535 271.525C181.54 271.499 181.544 271.473 181.546 271.448L181.57 271.286C181.573 271.243 181.579 271.201 181.589 271.16C181.593 271.105 181.601 271.052 181.613 270.998C182.219 267.404 186.698 244.946 206.187 227.502C204.785 225.283 203.534 222.973 202.442 220.587C202.225 220.117 201.991 219.617 201.739 219.092C200.607 216.68 199.264 213.663 197.731 209.894C194.356 201.737 188.637 188.428 184.692 179.283C183.51 176.534 182.48 174.159 181.725 172.391C181.443 171.733 181.192 171.151 180.982 170.689L180.353 169.226C180.353 169.226 162.643 174.757 154.012 170.427C154.012 170.427 153.82 170.707 153.493 171.268C153.446 171.34 153.415 171.407 153.369 171.472C151.698 174.42 147.368 183.482 147.579 198.501C147.612 200.355 147.732 202.294 147.882 204.323C147.946 205.05 148.01 205.776 148.102 206.507C144.852 217.591 143.189 229.08 143.164 240.63C143.19 242.577 143.268 244.459 143.402 246.35Z" fill="#CAB3DA"/>
<path fill-rule="evenodd" clip-rule="evenodd" d="M181.534 271.524C181.534 271.524 197.533 290.332 201.297 295.336C205.061 300.34 217.061 308.726 223.606 310.653C223.763 310.705 223.925 310.748 224.088 310.782C230.301 312.38 233.53 308.602 233.53 308.602C233.53 308.602 233.551 307.3 233.577 305.247C233.604 302.513 233.632 298.467 233.561 294.414C233.487 289.027 233.253 283.616 232.682 281.381C231.717 277.56 217.709 249.995 210.464 235.857C207.895 230.866 206.18 227.55 206.18 227.55C186.308 238.415 182.089 266.976 181.607 271.04C181.595 271.094 181.587 271.148 181.583 271.201C181.573 271.243 181.567 271.286 181.564 271.328L181.543 271.468C181.541 271.487 181.538 271.506 181.534 271.524Z" fill="url(#paint8_radial_26_2)"/>
<path fill-rule="evenodd" clip-rule="evenodd" d="M176.718 171.359C176.718 171.359 167.42 176.428 163.888 176.949C160.355 177.47 154.016 170.499 154.016 170.499C154.016 170.499 161.82 172.728 176.718 171.359Z" fill="#53345F"/>
<path fill-rule="evenodd" clip-rule="evenodd" d="M183.239 170.408C183.239 170.408 179.036 197.66 198.148 217.841C198.148 217.841 180.277 203.048 176.718 171.359L183.239 170.408Z" fill="#53345F"/>
<path fill-rule="evenodd" clip-rule="evenodd" d="M155.597 171.53C155.597 171.53 148.718 191.474 148.097 206.592C148.097 206.592 144.762 189.251 151.225 171.819L154.016 170.499L155.597 171.53Z" fill="#53345F"/>
<path fill-rule="evenodd" clip-rule="evenodd" d="M208.822 232.632C208.822 232.632 195.125 239.712 184.135 274.57L181.556 271.528C181.556 271.528 184.912 236.574 206.196 227.539L208.822 232.632Z" fill="#53345F"/>
<path fill-rule="evenodd" clip-rule="evenodd" d="M143.169 240.746C143.169 240.746 155.677 265.185 173.283 271.344L172.404 273.45C172.404 273.45 154.006 269.724 142.561 250.375L143.169 240.746Z" fill="#53345F"/>
<path d="M228.776 272.363C228.776 272.363 230.501 281.15 218.878 288.023C207.254 294.896 197.844 290.981 197.844 290.981C197.844 290.981 201.968 296.655 205.041 299.219C208.115 301.784 226.192 297.548 233.38 287.628C233.38 287.628 233.432 282.94 232.378 280.433C231.325 277.925 228.776 272.363 228.776 272.363Z" fill="url(#paint9_linear_26_2)"/>
<path d="M168.92 284.916C168.92 284.916 161.019 291.44 151.758 294.285C146.223 295.977 140.259 295.575 135.002 293.155C135.002 293.155 137.238 299.186 140.527 302.758C140.527 302.758 151.108 303.614 156.984 301.026C162.86 298.437 167.207 292.869 167.207 292.869L168.92 284.916Z" fill="url(#paint10_linear_26_2)"/>
<path d="M173.115 271.462L173.447 271.254C173.336 271.079 162.55 253.62 159.805 240.553C157.433 229.219 157.948 223.303 158.664 215.109C158.939 212.011 159.246 208.501 159.412 204.296C159.778 195.256 160.805 186.255 162.486 177.364L162.092 177.306C160.414 186.218 159.387 195.241 159.017 204.302C158.846 208.491 158.539 212.001 158.273 215.094C157.551 223.323 157.035 229.246 159.418 240.653C162.185 253.759 172.971 271.269 173.115 271.462Z" fill="#53345F"/>
<path style="mix-blend-mode:multiply" fill-rule="evenodd" clip-rule="evenodd" d="M163.873 309.655L164.615 309.486C165.751 300.107 168.457 282.059 173.261 271.348L181.535 271.525C181.535 271.525 197.533 290.332 201.304 295.338C205.076 300.342 217.061 308.726 223.606 310.653C223.765 310.703 223.926 310.743 224.089 310.775L233.583 305.212C233.616 302.486 233.637 298.44 233.572 294.387L232.817 294.067C232.817 294.067 222.522 303.288 212.301 301.159C202.081 299.03 188.211 272.424 189.096 268.019C192.412 251.552 204.138 240.659 210.467 235.844L206.184 227.53C204.782 225.311 203.531 223.001 202.438 220.615C207.485 224.032 212.933 225.817 218.367 224.94C230.487 222.972 236.835 214.125 238.474 211.487C236.628 214.259 228.853 224.22 211.496 222.85C207.96 222.549 204.583 221.246 201.761 219.095C189.082 209.834 184.462 186.381 184.485 181.503C184.485 180.768 184.561 180.035 184.71 179.315C185.593 175.21 188.693 174.172 188.693 174.172C188.286 173.899 187.902 173.593 187.546 173.256C186.302 172.05 184.843 171.087 183.245 170.416L181.887 170.63C181.854 171.091 181.79 171.719 181.735 172.471C181.218 179.557 181.388 186.676 182.244 193.728C182.873 199.261 184.251 204.682 186.342 209.842C193.509 226.627 196.188 229.628 196.188 229.628C196.188 229.628 185.364 254.21 177.46 259.543C169.557 264.876 151.571 252.109 147.379 246.418C145.376 243.733 144.046 241.887 143.168 240.703C143.191 242.57 143.263 244.451 143.404 246.343C143.404 246.343 142.928 248.53 142.221 251.987C146.355 257.928 160.297 278.466 162.39 286.268C164.838 295.455 163.873 309.655 163.873 309.655Z" fill="url(#paint11_linear_26_2)"/>
<g style="mix-blend-mode:multiply" opacity="0.5">
<path fill-rule="evenodd" clip-rule="evenodd" d="M183.24 170.401C183.24 170.401 177.523 184.74 162.54 191.651C147.556 198.562 147.039 172.63 147.039 172.63L151.224 171.819L153.496 171.34L183.24 170.401Z" fill="#53345F"/>
</g>
<path fill-rule="evenodd" clip-rule="evenodd" d="M165.844 317.998L164.799 315.384L165.699 308.801C165.699 308.801 151.158 313.362 141.49 310.936C144.645 314.567 148.727 317.272 153.301 318.763C153.301 318.763 145.075 321.397 144.381 329.723L165.844 317.998Z" fill="#D9D9D9"/>
<path fill-rule="evenodd" clip-rule="evenodd" d="M213.744 307.753L226.485 313.318L227.064 316.077C227.064 316.077 233.768 325.805 245.325 327.093C245.325 327.093 244.753 317.152 234.342 310.859L234.604 296.562C232.834 300.281 230.136 303.481 226.771 305.855C221.435 309.585 214.366 307.91 213.744 307.753Z" fill="#D9D9D9"/>
<path fill-rule="evenodd" clip-rule="evenodd" d="M165.843 317.998L167.035 319.336L144.959 331.085L144.362 329.699L165.843 317.998Z" fill="#CAB3DA"/>
<path style="mix-blend-mode:multiply" fill-rule="evenodd" clip-rule="evenodd" d="M141.466 310.911C144.62 314.542 148.702 317.247 153.276 318.738C153.276 318.738 162.074 317.416 165.844 317.998L164.799 315.384L165.699 308.801C165.699 308.801 151.13 313.351 141.466 310.911Z" fill="url(#paint12_linear_26_2)"/>
<path style="mix-blend-mode:multiply" fill-rule="evenodd" clip-rule="evenodd" d="M213.744 307.753L226.485 313.318C229.263 313.136 231.956 312.293 234.341 310.859L234.603 296.562C232.834 300.281 230.136 303.481 226.771 305.855C221.435 309.585 214.365 307.91 213.744 307.753Z" fill="url(#paint13_linear_26_2)"/>
<path fill-rule="evenodd" clip-rule="evenodd" d="M165.57 199.184C165.777 200.177 166.179 201.119 166.752 201.957C167.324 202.795 168.056 203.511 168.906 204.065C169.756 204.619 170.707 204.999 171.705 205.185C172.702 205.371 173.726 205.357 174.718 205.146C175.712 204.94 176.655 204.538 177.493 203.966C178.331 203.394 179.048 202.662 179.602 201.812C180.156 200.961 180.537 200.01 180.722 199.012C180.907 198.014 180.893 196.99 180.681 195.998C180.474 195.004 180.072 194.062 179.5 193.225C178.927 192.387 178.195 191.671 177.345 191.117C176.495 190.562 175.544 190.182 174.547 189.996C173.549 189.811 172.525 189.824 171.533 190.035C170.54 190.242 169.597 190.644 168.759 191.217C167.922 191.789 167.206 192.521 166.652 193.371C166.097 194.221 165.717 195.172 165.531 196.17C165.346 197.167 165.359 198.191 165.57 199.184Z" fill="#684D73"/>
<path fill-rule="evenodd" clip-rule="evenodd" d="M168.374 198.597C168.642 199.851 169.396 200.946 170.471 201.643C171.546 202.341 172.854 202.583 174.107 202.317C174.728 202.185 175.317 201.932 175.84 201.573C176.363 201.213 176.811 200.754 177.156 200.222C177.501 199.689 177.739 199.094 177.853 198.47C177.969 197.845 177.96 197.204 177.827 196.584C177.559 195.331 176.805 194.235 175.73 193.537C174.655 192.84 173.347 192.598 172.094 192.864C170.84 193.132 169.745 193.886 169.047 194.961C168.35 196.036 168.108 197.344 168.374 198.597Z" fill="url(#paint14_linear_26_2)"/>
<path d="M154.737 278.205C159.953 278.945 165.213 279.325 170.481 279.342L170.475 278.947C170.209 278.951 143.986 279.015 137.509 271.092L137.207 271.341C140.319 275.187 147.724 277.162 154.737 278.205Z" fill="#53345F"/>
<path d="M189.54 281.897L189.933 281.955C190.332 277.281 191.454 272.696 193.258 268.365C197.917 257.331 215.126 245.382 215.295 245.264L215.071 244.936C214.903 245.055 197.598 257.068 192.894 268.211C191.079 272.573 189.948 277.19 189.54 281.897Z" fill="#53345F"/>
<path d="M175.628 220.384C176.023 222.094 176.634 223.746 177.449 225.3L180.942 224.178C180.539 222.414 179.626 220.807 178.317 219.558L175.628 220.384Z" fill="white"/>
<path d="M221.434 273.149C222.634 274.462 223.498 276.047 223.951 277.768L221.449 279.41L219.305 274.79L221.434 273.149Z" fill="white"/>
<path d="M139.724 279.041C139.724 279.041 137.418 284.913 137.631 287.912L135.038 287.469C134.89 284.483 135.46 281.505 136.702 278.785L139.724 279.041Z" fill="white"/>
<path fill-rule="evenodd" clip-rule="evenodd" d="M220.736 151.708C220.655 151.887 220.58 152.059 220.484 152.233C219.3 154.572 216.912 157.257 213.697 159.87C213.697 159.87 213.507 160.033 213.135 160.299C206.03 165.766 197.794 169.576 189.027 171.453C173.768 174.634 150.83 174.69 135.416 165.286C120.002 155.882 112.169 125.636 115.497 115.626C116.628 112.146 117.973 108.738 119.524 105.423C124.559 94.7025 133.799 81.3518 150.624 76.1476C163.339 72.2096 180.849 72.5867 194.363 75.5513C198.198 76.3529 201.948 77.5168 205.564 79.0265C207.498 79.8328 209.335 80.8552 211.04 82.0736L211.646 82.5598C212.048 82.876 212.426 83.2203 212.779 83.5904C231 102.704 226.228 139.265 220.736 151.708Z" fill="url(#paint15_linear_26_2)"/>
<path d="M218.397 149.626C218.314 149.791 218.253 149.954 218.162 150.114C215.113 153.779 204.347 163.61 184.457 160.955C159.999 157.697 154.877 137.392 154.877 137.392L150.131 137.056C149.951 134.009 149.649 131.225 149.265 128.685C147.136 114.443 142.499 107.922 142.45 105.868C142.382 103.416 146.767 89.1556 163.592 81.8201C174.744 76.9674 185.751 77.0479 193.67 78.2245C197.267 78.9736 200.784 80.066 204.172 81.4863C205.988 82.2358 207.712 83.1938 209.307 84.3412L209.874 84.7958C210.253 85.0926 210.608 85.4181 210.937 85.7695C218.037 93.2108 221.406 103.461 222.562 113.741C224.194 128.22 221.411 142.792 218.397 149.626Z" fill="url(#paint16_linear_26_2)"/>
<path style="mix-blend-mode:multiply" fill-rule="evenodd" clip-rule="evenodd" d="M213.135 160.299C206.03 165.766 197.793 169.576 189.027 171.453C173.767 174.634 150.829 174.69 135.415 165.286C120.002 155.882 112.169 125.636 115.496 115.626C116.628 112.146 117.972 108.738 119.523 105.423C121.43 103.188 123.857 101.768 127.055 102.092C138.79 103.288 144.543 140.656 144.543 140.656L150.155 139.776C150.155 139.776 155.33 161.081 178.745 166.592C199.202 171.419 210.528 162.179 213.135 160.299Z" fill="url(#paint17_linear_26_2)"/>
<path fill-rule="evenodd" clip-rule="evenodd" d="M128.487 159.145C134.437 163.612 144.34 160.806 144.004 141.496C143.667 122.186 131.391 104.31 131.391 104.31C147.463 104.786 147.96 138.328 147.96 138.328C147.767 139.774 147.571 141.113 147.338 142.377L147.317 142.515C142.538 169.296 129.61 160.006 128.487 159.145Z" fill="url(#paint18_linear_26_2)"/>
<path fill-rule="evenodd" clip-rule="evenodd" d="M114.912 118.452C116.038 111.764 119.778 106.993 123.537 106.805C127.295 106.616 138.628 122.6 137.988 141.776C137.348 160.952 124.79 155.793 121.797 148.768L120.062 144.956C120.062 144.956 130.229 156.214 134.092 144.217C138.508 130.539 126.256 114.485 120.777 117.204C115.299 119.923 115.759 130.71 115.759 130.71C115.759 130.71 114.16 122.892 114.912 118.452Z" fill="#53345F"/>
<path d="M150.607 104.996C150.607 104.996 150.221 99.3331 150.667 97.5837C152.914 95.394 155.569 93.6661 158.481 92.4988L162.638 102.233C162.638 102.233 153.187 103.959 150.607 104.996Z" fill="white"/>
<path d="M218.437 149.957C218.362 150.121 218.293 150.285 218.202 150.444C215.16 154.109 204.407 163.924 184.539 161.275C160.11 158.013 155.018 137.734 155.018 137.734L150.287 137.396C150.1 134.351 149.798 131.573 149.422 129.032C149.422 129.032 185.12 87.427 222.589 114.081C224.231 128.573 221.452 143.13 218.437 149.957Z" fill="url(#paint19_linear_26_2)"/>
<path d="M159.261 140.845C159.261 140.845 160.89 145.566 163.336 148.264L165.999 146.449C165.999 146.449 163.501 142.288 162.347 139.741L159.261 140.845Z" fill="white"/>
<path d="M154.043 82.3874C154.043 82.3874 168.142 75.4977 177.542 74.8675C177.542 74.8675 143.966 73.8637 154.043 82.3874Z" fill="white"/>
<path d="M138.217 117.111L143.615 115.07L145.567 120.984L140.311 122.476L138.217 117.111Z" fill="white"/>
<defs>
<radialGradient id="paint0_radial_26_2" cx="0" cy="0" r="1" gradientUnits="userSpaceOnUse" gradientTransform="translate(219.259 168.375) rotate(117.915) scale(29.6718)">
<stop stop-color="#F4DBEE"/>
<stop offset="1" stop-color="#D1BDE5"/>
</radialGradient>
<linearGradient id="paint1_linear_26_2" x1="228.228" y1="169.053" x2="209.402" y2="188.102" gradientUnits="userSpaceOnUse">
<stop stop-color="#AA367C"/>
<stop offset="1" stop-color="#4A2FBD"/>
</linearGradient>
<linearGradient id="paint2_linear_26_2" x1="247.704" y1="139.048" x2="240.098" y2="152.731" gradientUnits="userSpaceOnUse">
<stop stop-color="white"/>
<stop offset="1" stop-color="#9579A7"/>
</linearGradient>
<radialGradient id="paint3_radial_26_2" cx="0" cy="0" r="1" gradientUnits="userSpaceOnUse" gradientTransform="translate(135.988 193.058) rotate(146.579) scale(27.1832 27.1831)">
<stop stop-color="#F4DBEE"/>
<stop offset="1" stop-color="#D1BDE5"/>
</radialGradient>
<linearGradient id="paint4_linear_26_2" x1="147.728" y1="194.381" x2="126.569" y2="199.357" gradientUnits="userSpaceOnUse">
<stop stop-color="#AA367C"/>
<stop offset="1" stop-color="#4A2FBD"/>
</linearGradient>
<linearGradient id="paint5_linear_26_2" x1="166.158" y1="182.034" x2="139.244" y2="199.795" gradientUnits="userSpaceOnUse">
<stop stop-color="#9579A7"/>
<stop offset="1" stop-color="white"/>
</linearGradient>
<linearGradient id="paint6_linear_26_2" x1="107.073" y1="194.012" x2="99.132" y2="199.253" gradientUnits="userSpaceOnUse">
<stop stop-color="#9579A7"/>
<stop offset="1" stop-color="white"/>
</linearGradient>
<radialGradient id="paint7_radial_26_2" cx="0" cy="0" r="1" gradientUnits="userSpaceOnUse" gradientTransform="translate(134.318 281.349) rotate(168.158) scale(28.977 28.977)">
<stop stop-color="#F4F1FF"/>
<stop offset="1" stop-color="#D1BDE5"/>
</radialGradient>
<radialGradient id="paint8_radial_26_2" cx="0" cy="0" r="1" gradientUnits="userSpaceOnUse" gradientTransform="translate(206.144 271.642) rotate(168.158) scale(34.9397 34.9397)">
<stop stop-color="#F4F1FF"/>
<stop offset="1" stop-color="#D1BDE5"/>
</radialGradient>
<linearGradient id="paint9_linear_26_2" x1="235.589" y1="287.131" x2="195.142" y2="281.289" gradientUnits="userSpaceOnUse">
<stop stop-color="#AA367C"/>
<stop offset="1" stop-color="#4A2FBD"/>
</linearGradient>
<linearGradient id="paint10_linear_26_2" x1="169.434" y1="294.858" x2="131.687" y2="289.455" gradientUnits="userSpaceOnUse">
<stop stop-color="#AA367C"/>
<stop offset="1" stop-color="#4A2FBD"/>
</linearGradient>
<linearGradient id="paint11_linear_26_2" x1="242.883" y1="232.304" x2="142.529" y2="253.346" gradientUnits="userSpaceOnUse">
<stop stop-color="white"/>
<stop offset="1" stop-color="#9579A7"/>
</linearGradient>
<linearGradient id="paint12_linear_26_2" x1="166.314" y1="311.774" x2="142.706" y2="316.724" gradientUnits="userSpaceOnUse">
<stop stop-color="white"/>
<stop offset="1" stop-color="#9579A7"/>
</linearGradient>
<linearGradient id="paint13_linear_26_2" x1="236.152" y1="303.817" x2="213.919" y2="308.479" gradientUnits="userSpaceOnUse">
<stop stop-color="white"/>
<stop offset="1" stop-color="#9579A7"/>
</linearGradient>
<linearGradient id="paint14_linear_26_2" x1="178.539" y1="197.883" x2="167.26" y2="196.248" gradientUnits="userSpaceOnUse">
<stop stop-color="#AA367C"/>
<stop offset="1" stop-color="#4A2FBD"/>
</linearGradient>
<linearGradient id="paint15_linear_26_2" x1="158.195" y1="173.226" x2="183.971" y2="72.8041" gradientUnits="userSpaceOnUse">
<stop stop-color="#D1BDE5"/>
<stop offset="1" stop-color="white"/>
</linearGradient>
<linearGradient id="paint16_linear_26_2" x1="139.073" y1="119.996" x2="231.633" y2="110.744" gradientUnits="userSpaceOnUse">
<stop stop-color="#AA367C"/>
<stop offset="1" stop-color="#4A2FBD"/>
</linearGradient>
<linearGradient id="paint17_linear_26_2" x1="111.836" y1="129.713" x2="214.23" y2="155.994" gradientUnits="userSpaceOnUse">
<stop stop-color="white"/>
<stop offset="1" stop-color="#9579A7"/>
</linearGradient>
<linearGradient id="paint18_linear_26_2" x1="129.93" y1="160.408" x2="143.608" y2="107.117" gradientUnits="userSpaceOnUse">
<stop stop-color="#D1BDE5"/>
<stop offset="1" stop-color="#F4DBEE"/>
</linearGradient>
<linearGradient id="paint19_linear_26_2" x1="145.529" y1="135.431" x2="232.747" y2="126.839" gradientUnits="userSpaceOnUse">
<stop stop-color="#5A30B2"/>
<stop offset="1" stop-color="#4A2FBD"/>
</linearGradient>
</defs>
</svg>
